<?xml version="1.0" encoding="utf-8"?>
<!-- Generator: Adobe Illustrator 21.0.0, SVG Export Plug-In . SVG Version: 6.00 Build 0)  -->
<svg version="1.1" id="Layer_1" xmlns="http://www.w3.org/2000/svg" xmlns:xlink="http://www.w3.org/1999/xlink" x="0px" y="0px"
	 viewBox="0 0 205.4 170.8" style="enable-background:new 0 0 205.4 170.8;" xml:space="preserve">
<style type="text/css">
	.st0{fill:none;stroke:#000000;stroke-width:3;stroke-miterlimit:10;}
</style>
<polygon id="Triangle" class="st0" points="98.6,3 2.6,169.3 194.6,169.3 "/>
<g id="First">
	<path d="M8.7,45.1H0v-2.5h20v2.5h-8.7v23.2H8.7V45.1z"/>
	<path d="M42.7,42.6h2.8l11.6,25.7h-2.8l-4.6-10.2H38.6L34,68.3h-2.8L42.7,42.6z M44.2,45.8l-4.4,9.8h8.8L44.2,45.8z"/>
	<path d="M93.5,42.6L82.6,65.4l-7.9-20.8c-0.5,0.6-1.1,1.1-1.8,1.4c-0.1,0.4-0.2,0.9-0.4,1.4c0.1,0.2,0.1,0.4,0.2,0.6
		c0,0.1,0.1,0.2,0.1,0.4c0.2,0.2,0.4,0.5,0.6,0.7v-0.6l0.6,1.4c0.6,0.9,1.1,2,1.4,3.1l5.7,15.2h3.1l9.6-19.7v19.7h2.6V42.6H93.5z"/>
	<path d="M128.8,55.5h-10.1l4.1-9c0-0.8,0.2-1.6,0.5-2.4c-0.6-0.5-1.1-1-1.5-1.6h-0.1l-11.6,25.7h2.8l4.6-10.2h11.4
		c0.1-0.4,0.3-0.7,0.5-1.1c0-0.1-0.1-0.1-0.1-0.2C129.1,56.4,128.9,56,128.8,55.5z"/>
	<path d="M149.8,42.6h8.4c4.9,0,8.2,3.2,8.2,8c0,4-2.3,6.9-5.9,7.7l7.8,10h-3.5l-7.7-9.7h-4.8v9.7h-2.6V42.6z M158.2,56.1
		c3.3,0,5.5-2.2,5.5-5.5c0-3.3-2.2-5.5-5.5-5.5h-5.8v10.9H158.2z"/>
	<path d="M191,42.6h2.8l11.6,25.7h-2.8L198,58.1h-11.1l-4.6,10.2h-2.8L191,42.6z M192.5,45.8l-4.4,9.8h8.8L192.5,45.8z"/>
</g>
<g id="Last">
	<path d="M13.5,82.3H16v10.6h14.4V82.3h2.4V108h-2.4V95.4H16V108h-2.5V82.3z"/>
	<path d="M58.1,81.9c-2.9,0-5.5,1-7.6,2.6c-0.1,0.5-0.3,1-0.4,1.5c0.2-0.1,0.4-0.2,0.6-0.2c0.8-0.2,1.7-0.2,2.5,0
		c1.5-0.8,3.1-1.3,4.9-1.3c5.7,0,10.3,4.8,10.3,10.4c0,5.9-4.5,10.7-10.3,10.7c-5.7,0-10.3-4.8-10.3-10.7c0-0.4,0-0.9,0.1-1.3
		c-0.5-0.6-0.7-1.4-0.8-2.2c-0.5,0.6-1.1,1.2-1.7,1.7c-0.1,0.6-0.1,1.2-0.1,1.8c0,7.3,5.8,13.3,12.9,13.3c7.1,0,12.9-6,12.9-13.3
		C71,87.9,65.2,81.9,58.1,81.9z"/>
	<path d="M81.7,82.3h2.5l7,21.8l7-21.8h2.5l7,21.8l7-21.8h2.5l-8.3,25.7h-2.5l-7-21.8l-7,21.8H90L81.7,82.3z"/>
	<path d="M144,84.8v-1.3c-0.5-0.3-0.9-0.8-1.3-1.2h-13V108H144v-2.5h-11.8V94.5h11.1V92h-11.1v-7.2H144z"/>
	<path d="M159.6,82.3h2.5v23.2h11.4v2.5h-13.9V82.3z"/>
	<path d="M183.7,82.3h2.5v23.2h11.4v2.5h-13.9V82.3z"/>
</g>
</svg>
